HIERARCHY
ROOT Hips
{
	OFFSET -0.001795 -0.223333 0.028219
	CHANNELS 6 Xposition Yposition Zposition Zrotation Yrotation Xrotation 
	JOINT LeftUpLeg
	{
		OFFSET 0.069520 -0.091406 -0.006815
		CHANNELS 3 Zrotation Yrotation Xrotation
		JOINT LeftLeg
		{
			OFFSET 0.034277 -0.375199 -0.004496
			CHANNELS 3 Zrotation Yrotation Xrotation
			JOINT LeftFoot
			{
				OFFSET -0.013596 -0.397961 -0.043693
				CHANNELS 3 Zrotation Yrotation Xrotation
				JOINT LeftToe
				{
					OFFSET 0.026358 -0.055791 0.119288
					CHANNELS 3 Zrotation Yrotation Xrotation
					End Site
					{
						OFFSET 0.000000 0.000000 0.000000
					}
				}
			}
		}
	}
	JOINT RightUpLeg
	{
		OFFSET -0.067670 -0.090522 -0.004320
		CHANNELS 3 Zrotation Yrotation Xrotation
		JOINT RightLeg
		{
			OFFSET -0.038290 -0.382569 -0.008850
			CHANNELS 3 Zrotation Yrotation Xrotation
			JOINT RightFoot
			{
				OFFSET 0.015774 -0.398415 -0.042312
				CHANNELS 3 Zrotation Yrotation Xrotation
				JOINT RightToe
				{
					OFFSET -0.025372 -0.048144 0.123348
					CHANNELS 3 Zrotation Yrotation Xrotation
					End Site
					{
						OFFSET 0.000000 0.000000 0.000000
					}
				}
			}
		}
	}
	JOINT Spine
	{
		OFFSET -0.002533 0.108963 -0.026696
		CHANNELS 3 Zrotation Yrotation Xrotation
		JOINT Spine1
		{
			OFFSET 0.005487 0.135180 0.001092
			CHANNELS 3 Zrotation Yrotation Xrotation
			JOINT Spine2
			{
				OFFSET 0.001457 0.052922 0.025425
				CHANNELS 3 Zrotation Yrotation Xrotation
				JOINT Neck
				{
					OFFSET -0.002778 0.213870 -0.042857
					CHANNELS 3 Zrotation Yrotation Xrotation
					JOINT Head
					{
						OFFSET 0.005152 0.064970 0.051349
						CHANNELS 3 Zrotation Yrotation Xrotation
						End Site
						{
							OFFSET 0.000000 0.000000 0.000000
						}
					}
				}
				JOINT LeftShoulder
				{
					OFFSET 0.078845 0.121749 -0.034090
					CHANNELS 3 Zrotation Yrotation Xrotation
					JOINT LeftArm
					{
						OFFSET 0.090977 0.030469 -0.008868
						CHANNELS 3 Zrotation Yrotation Xrotation
						JOINT LeftForeArm
						{
							OFFSET 0.259612 -0.012772 -0.027456
							CHANNELS 3 Zrotation Yrotation Xrotation
							JOINT LeftHand
							{
								OFFSET 0.249234 0.008986 -0.001171
								CHANNELS 3 Zrotation Yrotation Xrotation
								End Site
								{
									OFFSET 0.000000 0.000000 0.000000
								}
							}
						}
					}
				}
				JOINT RightShoulder
				{
					OFFSET -0.081759 0.118833 -0.038615
					CHANNELS 3 Zrotation Yrotation Xrotation
					JOINT RightArm
					{
						OFFSET -0.096012 0.032551 -0.009143
						CHANNELS 3 Zrotation Yrotation Xrotation
						JOINT RightForeArm
						{
							OFFSET -0.253742 -0.013329 -0.021401
							CHANNELS 3 Zrotation Yrotation Xrotation
							JOINT RightHand
							{
								OFFSET -0.255298 0.007772 -0.005559
								CHANNELS 3 Zrotation Yrotation Xrotation
								End Site
								{
									OFFSET 0.000000 0.000000 0.000000
								}
							}
						}
					}
				}
			}
		}
	}
}
MOTION
Frames: 16
Frame Time: 0.050000
0.000000 0.960389 0.000000 2.577947 16.876992 9.434606 8.060899 -0.817760 -9.393807 -5.223969 0.333039 3.459834 2.035878 10.273913 13.841246 0.000000 0.000000 0.000000 -9.912961 -0.280247 -18.525668 2.553108 -0.489162 10.655322 -2.071820 -6.707822 13.119433 0.000000 0.000000 0.000000 5.862551 -4.117645 27.386617 8.143569 -1.578404 -17.451835 5.517135 0.206284 27.222276 6.335141 -2.312790 -15.716942 0.000000 0.000000 0.000000 -13.103727 -15.114669 4.956455 -62.610530 -22.330179 1.595175 -24.145498 -53.241284 14.507832 0.000000 0.000000 0.000000 -2.509296 23.885930 8.130835 48.392262 43.162803 12.818734 -18.448512 16.273604 -1.465960 0.000000 0.000000 0.000000 
-0.000988 0.961509 -0.000859 2.599310 16.717079 10.280277 8.741755 -0.874419 -10.491499 -5.242046 0.338949 2.895417 1.124227 9.356200 15.071262 0.000000 0.000000 0.000000 -10.574221 -0.445458 -19.909843 3.660477 -0.747527 10.632028 -2.083493 -6.820244 13.740309 0.000000 0.000000 0.000000 6.876927 -4.338200 26.785998 9.280974 -1.864335 -18.209977 5.155642 1.006395 29.361152 7.444395 -2.993599 -15.754101 0.000000 0.000000 0.000000 -14.233826 -14.445291 4.454081 -60.758724 -22.828466 1.561854 -27.555862 -53.995358 16.431161 0.000000 0.000000 0.000000 -4.314549 24.654588 7.842194 48.949302 43.549422 13.489905 -22.086814 14.285094 -1.501436 0.000000 0.000000 0.000000 
-0.001283 0.961180 -0.001929 2.592114 16.072478 9.922865 8.435907 -0.840617 -10.145515 -5.552608 0.375057 3.283017 0.546358 8.087007 14.094327 0.000000 0.000000 0.000000 -10.242196 -0.352689 -19.817915 3.754581 -0.784493 11.355001 -1.843062 -6.272183 12.108213 0.000000 0.000000 0.000000 7.251919 -4.318738 26.443548 9.228984 -1.930672 -17.557296 5.913909 1.420642 29.125293 7.747603 -2.928012 -17.076467 0.000000 0.000000 0.000000 -14.506907 -14.004519 4.183248 -60.817941 -24.105482 2.304708 -29.787195 -54.632979 17.850892 0.000000 0.000000 0.000000 -4.481930 23.518584 7.403562 46.649299 42.737073 12.227278 -20.029514 14.855691 -1.436978 0.000000 0.000000 0.000000 
-0.001244 0.963326 -0.002996 2.618374 16.427756 9.407591 8.433923 -0.819282 -9.615664 -5.086286 0.329331 3.476202 0.419225 7.913469 14.040222 0.000000 0.000000 0.000000 -10.750194 -0.450311 -19.152177 3.555481 -0.743391 11.293103 -0.290128 -3.370307 12.720170 0.000000 0.000000 0.000000 7.789432 -4.668383 27.276465 9.915202 -2.228984 -16.834934 6.172836 1.104291 28.985607 7.110072 -2.500699 -17.238028 0.000000 0.000000 0.000000 -13.887348 -14.103325 4.341032 -61.161609 -24.420995 2.465475 -29.552843 -57.477555 18.908221 0.000000 0.000000 0.000000 -6.475931 23.976108 6.934231 46.365114 42.709302 12.284194 -21.779099 13.887756 -1.437879 0.000000 0.000000 0.000000 
-0.001051 0.964468 -0.003962 3.465036 16.958228 9.459855 7.345832 -0.821472 -9.568746 -4.969925 0.310257 3.471233 0.292400 8.074036 14.758107 0.000000 0.000000 0.000000 -11.402465 -0.567855 -18.271385 3.348052 -0.681270 10.578987 -0.407766 -3.624644 13.364774 0.000000 0.000000 0.000000 8.122143 -4.815773 27.309572 10.240303 -2.288632 -17.130369 6.327115 0.714521 28.851394 6.491104 -2.033245 -17.538495 0.000000 0.000000 0.000000 -13.719202 -14.530172 4.575653 -60.266315 -23.709874 2.031796 -34.192676 -59.544734 22.488695 0.000000 0.000000 0.000000 -6.293741 23.891128 6.966626 44.904798 41.083242 10.943946 -21.432117 14.508412 -1.511030 0.000000 0.000000 0.000000 
-0.001094 0.966229 -0.004649 3.879313 16.939768 9.444511 6.909352 -0.807009 -9.327997 -4.610579 0.277755 3.663616 -0.020443 7.741897 15.089393 0.000000 0.000000 0.000000 -11.644285 -0.597860 -17.963654 2.743494 -0.523391 10.215586 0.456508 -1.919402 12.951024 0.000000 0.000000 0.000000 8.501527 -4.882566 27.100959 10.091094 -2.236226 -17.198081 6.645474 0.219070 29.233726 6.120561 -1.905810 -17.290882 0.000000 0.000000 0.000000 -13.020645 -15.086865 4.978337 -60.043647 -24.484184 2.346451 -35.524821 -61.383556 24.341568 0.000000 0.000000 0.000000 -7.476196 23.400059 6.455331 45.750918 40.148338 10.779997 -22.246835 15.516731 -1.710179 0.000000 0.000000 0.000000 
-0.001540 0.967193 -0.005199 4.084533 16.304849 9.501043 6.853097 -0.797200 -9.308029 -4.813086 0.304436 3.730467 -0.043842 7.793141 15.532146 0.000000 0.000000 0.000000 -11.695907 -0.568429 -18.020761 2.645782 -0.476953 9.943081 0.913889 -1.239458 13.385433 0.000000 0.000000 0.000000 8.382804 -4.790362 27.088129 10.295573 -2.297421 -17.335862 6.717323 -0.364660 29.493065 5.964895 -1.862018 -17.830040 0.000000 0.000000 0.000000 -12.313030 -15.059512 5.162057 -59.203637 -24.538633 2.274878 -37.434561 -62.724273 26.461386 0.000000 0.000000 0.000000 -6.712006 23.430341 6.684269 45.413999 39.493668 10.126388 -22.191322 16.358201 -1.846987 0.000000 0.000000 0.000000 
-0.002309 0.967845 -0.005800 4.042454 15.707933 9.577167 7.171441 -0.795770 -9.434656 -5.307088 0.359163 3.726622 0.128632 7.853693 15.248073 0.000000 0.000000 0.000000 -11.382132 -0.480494 -18.283954 2.153546 -0.347299 9.854270 1.558539 0.106368 12.557902 0.000000 0.000000 0.000000 8.489690 -4.743894 26.920951 10.466531 -2.411712 -16.924382 6.526732 -0.517378 29.200804 5.043128 -1.341462 -17.540006 0.000000 0.000000 0.000000 -12.015715 -15.559745 5.490443 -57.513973 -25.093337 2.464287 -31.989251 -63.501015 23.261812 0.000000 0.000000 0.000000 -5.178418 23.515168 7.152194 44.928522 39.304252 9.690300 -22.220378 16.075258 -1.806800 0.000000 0.000000 0.000000 
-0.003130 0.967735 -0.006510 3.806297 14.718382 9.207504 7.565315 -0.762883 -9.189734 -5.469925 0.392200 4.006006 -0.056556 7.199955 14.584783 0.000000 0.000000 0.000000 -10.912770 -0.350992 -18.601249 1.936368 -0.280344 10.156845 2.116531 1.072325 12.409399 0.000000 0.000000 0.000000 8.057799 -4.621955 27.425355 10.790216 -2.507448 -17.173651 6.642648 -0.815243 29.427426 4.219234 -0.880687 -17.731340 0.000000 0.000000 0.000000 -11.467532 -15.972970 5.825991 -56.121024 -27.049620 3.305233 -21.229714 -62.377464 16.102954 0.000000 0.000000 0.000000 -3.813259 24.124616 7.696464 44.727078 39.549878 9.504560 -22.214569 15.702692 -1.770968 0.000000 0.000000 0.000000 
-0.003892 0.968005 -0.007330 3.871520 13.958158 9.207218 7.516656 -0.758666 -9.394105 -5.580594 0.415926 4.065975 -0.002776 7.170414 14.538754 0.000000 0.000000 0.000000 -10.647257 -0.275928 -19.114918 1.543370 -0.175558 10.285495 2.354309 1.541560 12.040125 0.000000 0.000000 0.000000 7.922946 -4.472558 27.207664 10.961519 -2.599537 -16.948461 6.430199 -1.323017 29.282049 2.897391 -0.109010 -17.785022 0.000000 0.000000 0.000000 -10.813835 -16.648384 6.271401 -53.925181 -29.825879 4.417661 -9.632845 -59.272112 8.503164 0.000000 0.000000 0.000000 -2.338639 24.616248 8.245037 45.235708 39.976560 9.624620 -21.440749 15.936144 -1.751128 0.000000 0.000000 0.000000 
-0.004532 0.967960 -0.008153 3.620338 13.563307 8.934091 7.923238 -0.736068 -9.153612 -5.520318 0.418132 4.050015 0.003594 7.213554 14.780298 0.000000 0.000000 0.000000 -10.428715 -0.221538 -19.273104 1.632818 -0.187696 10.380040 2.476623 1.637514 12.295215 0.000000 0.000000 0.000000 7.574480 -4.389376 27.535743 11.326045 -2.719400 -17.009060 6.510550 -1.648132 29.245144 2.098083 0.401888 -18.315288 0.000000 0.000000 0.000000 -10.060038 -17.610925 6.749615 -52.381030 -33.576083 5.969246 1.529214 -53.688809 1.935618 0.000000 0.000000 0.000000 -1.387704 25.588339 8.807810 46.562746 40.582657 10.208956 -20.646908 16.597325 -1.784468 0.000000 0.000000 0.000000 
-0.005168 0.967653 -0.009005 3.246364 12.908321 8.229041 8.235137 -0.684901 -8.393626 -5.475578 0.426078 3.490228 0.228814 7.335117 14.429285 0.000000 0.000000 0.000000 -9.908487 -0.080281 -18.780990 1.526408 -0.145590 10.018356 2.590101 1.767695 12.283938 0.000000 0.000000 0.000000 7.235376 -4.251207 27.756851 11.485387 -2.860004 -16.449505 6.118308 -1.956345 28.950691 0.874519 1.063413 -17.576457 0.000000 0.000000 0.000000 -9.814506 -18.228509 7.110152 -51.096277 -36.679081 7.228164 7.694085 -48.009688 -0.973286 0.000000 0.000000 0.000000 -0.486895 26.617718 9.363489 48.137645 41.903189 11.243044 -20.094167 18.017941 -1.941768 0.000000 0.000000 0.000000 
-0.005677 0.966943 -0.009885 2.673866 12.193611 7.891199 8.895604 -0.666852 -8.480265 -5.513351 0.443497 3.732843 0.525449 7.723755 14.524273 0.000000 0.000000 0.000000 -9.320649 0.059294 -18.808150 1.839971 -0.198263 9.806259 2.433372 1.327622 12.415355 0.000000 0.000000 0.000000 6.765581 -4.093285 28.011228 11.138053 -2.754395 -16.544945 6.037514 -2.162431 29.001574 0.137321 1.553819 -18.512695 0.000000 0.000000 0.000000 -9.438851 -18.468123 7.261648 -50.530525 -38.698849 8.088701 11.381076 -43.388799 -2.291418 0.000000 0.000000 0.000000 0.117038 27.176233 9.687330 51.129501 42.593706 12.559510 -19.820054 19.819217 -2.139189 0.000000 0.000000 0.000000 
-0.006039 0.965907 -0.010829 2.040507 11.143418 7.550665 9.302838 -0.626814 -8.059420 -5.602452 0.470815 3.512844 1.294308 8.551605 13.925858 0.000000 0.000000 0.000000 -8.435646 0.265001 -18.833562 1.734624 -0.152595 9.607134 2.586179 1.429316 12.565656 0.000000 0.000000 0.000000 5.977361 -3.780207 28.105477 11.204024 -2.842804 -16.182949 5.486305 -2.050355 28.827662 -0.724068 2.095673 -18.872486 0.000000 0.000000 0.000000 -9.686819 -18.128098 7.194954 -49.529988 -38.997650 8.021621 13.188285 -41.003965 -2.802713 0.000000 0.000000 0.000000 1.093923 27.699009 10.114104 52.885270 43.422713 13.560544 -19.060695 22.493911 -2.368847 0.000000 0.000000 0.000000 
-0.006018 0.964788 -0.011592 1.581845 10.856676 7.220709 9.610334 -0.616049 -8.234432 -5.447227 0.461745 4.076237 1.531465 8.718437 13.418087 0.000000 0.000000 0.000000 -7.968846 0.355763 -18.735571 1.787263 -0.157924 9.620359 2.665755 1.552462 12.527788 0.000000 0.000000 0.000000 5.484884 -3.647287 28.369649 10.375723 -2.571839 -16.253663 5.214919 -2.629970 28.689879 -1.525328 2.507034 -18.681727 0.000000 0.000000 0.000000 -10.094803 -18.355277 7.442094 -48.696497 -38.824946 7.797245 13.521005 -40.847335 -2.867846 0.000000 0.000000 0.000000 1.692744 27.782962 10.253045 54.848571 43.616021 14.277576 -17.878380 25.133716 -2.466213 0.000000 0.000000 0.000000 
-0.005706 0.964089 -0.011891 0.909022 10.197161 6.877144 9.985224 -0.589384 -8.140085 -5.169426 0.442944 4.196869 1.810150 8.924668 12.948916 0.000000 0.000000 0.000000 -7.158634 0.520849 -18.600078 1.794969 -0.145298 9.256511 2.799535 1.577876 12.924688 0.000000 0.000000 0.000000 4.274026 -3.276467 28.675120 10.253001 -2.507572 -16.588622 4.610204 -2.677426 28.820702 -1.925427 2.742126 -19.148330 0.000000 0.000000 0.000000 -11.375126 -17.912425 7.426774 -48.769419 -38.080349 7.496420 13.110434 -41.510637 -2.712753 0.000000 0.000000 0.000000 2.677907 27.840948 10.503573 55.656680 43.373390 14.329429 -16.820162 28.380352 -2.579726 0.000000 0.000000 0.000000 
